<?xml version="1.0" encoding="utf-8"?>
<!-- Generator: Adobe Illustrator 28.0.0, SVG Export Plug-In . SVG Version: 6.00 Build 0)  -->
<svg version="1.1" id="Capa_1" xmlns="http://www.w3.org/2000/svg" xmlns:xlink="http://www.w3.org/1999/xlink" x="0px" y="0px"
	 viewBox="0 0 1024 1024" style="enable-background:new 0 0 1024 1024;" xml:space="preserve">
<style type="text/css">
	.st0{fill:#AF7F35;}
</style>
<g>
	<path class="st0" d="M949.79,771.37c0,0,42.02-94.11,48.44-140.06c6.39-45.91,6.44-118.38-34.46-161.29
		c-17.89-18.8-60.03-40.51-101.57-67.47c-16.43-10.71-252.13-50.39-251.99-51.85c0.02-0.15,15.95,3.76,39.76,9.7
		c0.52,0.13-31.06-3.81-30.54-3.67c0.55,0.16,33.2,4.34,33.78,4.49c2.3,0.58-31.36-2.55-28.92-1.95c0.4,0.14,36.87,3.93,37.3,4.05
		c3.29,0.83,6.66,1.68,10.13,2.56c1.33,0.31-44.25-5.17-42.9-4.8c1.23,0.32,47.46,6.16,48.72,6.48c0.94,0.24,2.03,0.5,3.16,0.76
		c0.47,0.11-41.34-3.46-40.87-3.33c0.28,0.06,42.87,3.81,43.15,3.88c3.01,0.65,6.17,1.39,8.65,1.99c1.22,0.31-50.09-4.31-48.83-4
		c1.59,0.4,55.76,5.75,57.35,6.16c0.69,0.19,1.39,0.35,2.08,0.52c1.22,0.29-41.19-1.27-39.98-0.96c0.06,0.02,43.72,1.91,43.77,1.92
		c1.43,0.35,2.89,0.73,4.38,1.1c0.91,0.21-50.65-0.97-49.71-0.74c0.82,0.19,54.14,1.87,55,2.1c1,0.25,2.02,0.48,3.07,0.75
		c0.3,0.06-51.41,1.49-51.11,1.56c0.22,0.04,52.43-1.24,52.62-1.17c2.61,0.69,5.23,1.3,7.85,1.97c0.86,0.22-58.6,2.96-57.72,3.15
		c1.05,0.27,62.42-1.98,63.5-1.67c5.17,1.28,10.34,2.59,15.48,3.88c0.9,0.25-70.57,6.26-69.67,6.49c0.88,0.23,74.13-5.38,75.01-5.15
		c4.08,1.02,8.14,2.05,12.14,3.08c0.91,0.23-49.84,8.85-48.91,9.08c0.92,0.2,53.46-7.92,54.38-7.71c4.99,1.26,12.31,1.69,17.07,2.91
		c0.87,0.23-65.26,10.27-64.4,10.48c1.03,0.25,69.09-9.5,70.12-9.24c3.29,0.85,6.76,1.79,9.92,2.61
		c0.96,0.25-72.26,10.88-71.31,11.1c1.06,0.25,73.77-8.02,74.56-8.74c1.3-1.25,6.45-0.54,14.78,1.56
		c0.93,0.24-81.06,14.68-80.09,14.92c0.69,0.18,85.93-12.83,86.68-12.63c4.24,1.06,8.63,2.15,12.76,3.22
		c1.07,0.26-92.12,16.13-91.08,16.39c0.88,0.25,95.84-14.59,96.7-14.37c6.17,1.59,8.68,1.98,8.68,1.98l13.85,7.36l-118.48,10.29
		l122.25-8.08l11.14,6.6l-128.7,9.7l133.52-6.14l20.6,10.8l-141.47,4.38l148.04,0.8l10.83,6.91l-165.32-1.58l171.87,6.6l8.99,5.92
		l-166.36-2.32l171.39,7.04l7.75,8.08l-177.87-1.74l180.83,5.9l6.37,7.58l-170.72-6.65l172.33,9.9l4.73,4.38l-178.5-3.7l157.34,3.18
		l-144.56,4.86l167.02,0.29l3.14,5.83l-163.84,6.16l165.16-1.36l0.95,3.34l-152.6,7.8l153.82-4.12l1.94,5.08l-147.09,11.55
		l147.92-7.1l1.27,5.28l-140.12,10.51l140.02-6.16l0.82,4.63l-125.61,12.09l125.95-8.99l0.4,3.9L862.4,564.29l123.86-9.86l0.74,3.95
		L860.46,573.8l126.58-10.75l0.64,4.78l-122.86,17.4l122.92-13.03l-0.08,5.46l-115.62,19.3l116.11-15.99l-0.63,4.44l-113.69,22.73
		l113.95-18.47l-0.79,4.43l-110.64,27.2l110.64-23.8l-0.17,6.44l-116.9,10.9l116.03-5.79l-1.25,9.24l-115.06,20.71l114.58-15.91
		l-1.25,9.26l-79.88,15.9l79.4-11.09l-2.74,8.14l-81,15.53l79.87-11.12l-1.14,5.06l-96.54-21.66l96.56,24.89l-4.94,13.41
		c0,0-3.1,11.98-7.18,25.81c-4.13,13.81-11.4,32.48-18.05,44.77c-6.67,12.26-19.83,34.86-19.83,34.86l19.66,2.63L949.79,771.37z"/>
	<polygon class="st0" points="809.81,418.01 813.5,418.51 728.39,442.15 	"/>
	<polygon class="st0" points="814.25,427.85 817.85,428.79 730.42,441.48 	"/>
	<polygon class="st0" points="815.88,437.98 819.44,438.91 732.03,451.65 	"/>
	<polygon class="st0" points="869.67,430.3 873.3,432.37 770.66,445.02 	"/>
	<polygon class="st0" points="926.64,462.65 930.23,464.75 827.62,477.39 	"/>
	<polygon class="st0" points="937.75,473.75 941.35,475.83 838.75,488.46 	"/>
	<polygon class="st0" points="832.8,412.77 833.79,414.96 720.82,420.98 	"/>
	<polygon class="st0" points="974.25,596.21 974.98,600.33 858.89,630.75 	"/>
	<polygon class="st0" points="717.93,167.54 718.9,169.25 634.18,162.48 	"/>
	<polygon class="st0" points="771.33,297.17 772.49,300.71 651.13,277.83 	"/>
	<polygon class="st0" points="783.73,332.23 784.88,335.78 663.53,312.92 	"/>
	<polygon class="st0" points="799.23,382.52 800.37,386.07 658.05,336.98 	"/>
	<polygon class="st0" points="281.69,251.31 226.01,324.5 284.28,251.96 	"/>
	<polygon class="st0" points="374.05,267.41 305.67,329.34 375.67,267.57 	"/>
	<path class="st0" d="M897.1,771.34c0,0-23.02-208.12-30.69-257.71c-7.69-49.61-41.48-205.64-62.58-263.92
		c-11.26-31.06-35.11-85.91-54.98-130.41C731.43,80.28,610.71,36,610.71,36l17.96,8.95l-22.13-5.86l26.6,8.1l8.18,4.07l-23.7-0.24
		l26.47,1.5l4.23,2.3l-21.63,7.02l23.53-6.32l5.68,2.81l-30.55-2.22l35.08,4.47l5.04,2.49l-32.05,6.34l33.74-5.5l8.48,4.18
		l-41.01-2.11l44.27,3.8l2.4,1.43l-39.23,3.52l41.41-2.23l4.2,2.48l-50.81-4.17l54.16,6.14l2.63,1.5l-46.1,1.04l47.37-0.33
		l3.97,2.28l-62.98-6.33l65.4,7.91l5.91,3.13l-62.74-4.64l63.65,5.7l1.89,1.53l-54.22,1.32l55.86,0.02l2.27,1.84l-66.42-5.51
		l69.55,7.82l2.99,2.21l1.75,1.5l-71.44-6.17l73.16,7.99l1.87,1.45l-65.28,0.32l67.26,1.19l3.12,2.39l-73.66-7.06l75.31,9.11
		l2.73,2.76l-77.59-7l78.88,8.89l2.49,4.05l-78.02-9.96l78.9,11.6l0.86,1.63l-73.37-9.63l74.09,11.01l0.98,1.87l-73.53-7.33
		l73.69,9.1l0.8,1.6l-67.17-8.11l67.75,9.33l0.87,1.73l-78.47-8.49l79.13,10.27l0.27,0.96l-67.76-1.57l68.24,3.2l0.72,2.25
		l-79.09-9.2l79.31,10.77l1.93,5.22l-80.29-6.25l80.59,8.45l2.22,4.88l-81.39-3.87l81.84,6l0.45,1.86l-92.68-1.37l93.1,3.07
		l0.74,2.8l-82.02-7.05l82.59,8.75l0.6,1.52l-96.63-4.96l97.56,7.13l1.09,2.46l-80.03-4.73l80.37,6.81l0.8,2.3l-80.08-5.77
		l80.77,7.6l1.04,2.87l-83.49-7.91l84.29,9.97l0.75,2.51l-75.02-4.66l75.57,6.51l1.25,3.95l-89.95-10.56l90.88,12.47l2.69,5.19
		l-87.69-14.55l88.56,16.27l1.25,2.45L666.5,179.87l102.46,18.82l0.9,2.43l-77.11-9.71l78,12.03l1.34,3.45l-89.41-14.87l90.37,17.74
		l1.06,2.23l-83.6-13.1l84.72,15.43l1.13,2.35l-96.39-18.07l96.96,20.16l0.91,2.59l-100.11-16.45l100.86,18.6l0.93,2.7L677.3,209.03
		l102.46,19.91l2.22,5.43l-106.31-20.31l106.73,23.16l1.07,2.56l-106.02-24.02l107.11,26.59l1.13,2.67L676.1,221.19l110.03,26.92
		l2.67,7.62l-121.47-33.86l122.23,37l1.49,6.4L679,234.97l112.13,33.21l1.22,4.36l-134.32-32.07l135.37,35.6l2.3,8.15l-107.5-56.33
		l107.06,59.27l2.46,6.63l-122.49-64.9L799.1,298l1.36,6.97l-129.68-63.5l130.46,67.32l1.48,3.94l-131.8-49.32l133.02,52.56
		l1.99,5.25l-134.3-64.21L806.4,325.4l1.2,3.9l-138.19-58.46l139.1,61.39l1.74,5.8l-140.52-64.03l140.34,67.79l2.67,7.61
		l-137.31-60.16l138.54,65.74l1.46,6.9l-146.44-68.24l147.22,72.88l0.8,3.48L666.8,310.58l151.04,63.53l1.52,5.93l-151.71-76.85
		l152.49,79.59l0.83,4.46L665.99,315.1l155.82,76.46l0.98,5.19l-130.02-65.63l129.58,68.98l8.3,28.63c0,0,22.36,119.73,28.53,136.6
		c6.13,16.9,17.42,109.66,20.45,126.33c3.01,16.7,9.01,80.02,9.01,80.02L897.1,771.34z"/>
	<path class="st0" d="M620.46,345.26l-103.94-207.3c0,0,101.59,213.61,95.49,203.78c-16.46-26.43-108.82-204.57-110.93-206.65
		c-2.9-2.93,101.11,195.65,102.08,202.43c0.4,2.82-6.69-3.59-9.76-4.63c-0.6-0.23-107.62-200.47-108.27-200.73
		c-1.27-0.55,103.02,198.34,101.86,197.74c-2.28-1.23-4.87-2.85-4.87-2.85L466.31,125.88c0,0,114.55,209.35,108.37,198.65
		c-1.16-1.96-4.23-0.8-9.25-10.37c-27.1-51.6-109.73-189.72-109.73-189.72s75.94,127.29,78.84,135.01
		c1.85,4.96,20.19,41.42,24.65,54.92c2.52,7.56-7.45-2.52-7.45-2.52L442.66,122.04l101.44,186.8l-9.16-4.93L430.58,118.14
		l98.73,183.15l-7.95-3.42L419.01,118.14l93.8,176.21l-6.94-2.72L407.9,116.72l91.22,172.7l-4.12-1.11l-99.16-171.59l96.04,170.79
		l-4.53-1.61L387.14,121.54l94.38,163.05l-4.93-1.61L379.9,124.44l92.16,158.24l-4.83-1.11l-99.41-164.39l95.11,163.67
		L349.48,118.14L457.5,279.98L329.22,117.19l122.72,160.66l-3.62-0.8l-135.51-158.4l124.53,150.13l4.04,6.36l-4.43-1.11
		L301.2,124.44l129.81,147.88l-5.63-1.31L286.26,121.54L420.15,269.8l-6.34-1.61L271.76,119.64l133.98,146.47l-7.98-2.64
		L261.63,123.01l127.63,138.64l-10.16-2.82L260.18,130.22l110.97,127.21l-9.12-2.41L251.49,127.83l104.47,126.28l-11.31-1.98
		l-10.37-12.05l-92.92-109.37l97.6,120.68l-8.65-1.71l-96.67-112.2l90.94,110.69l-4.02-0.6l-96.58-112.03l89.84,110.82l-7.34-0.7
		l-97.93-109.16l91.39,108.66l-10.34-0.55L197.9,140.37l85.22,103.97l-9.9-0.92l-88.84-100.17l82.74,100.19l-4.33-0.2l-87.1-98.04
		l82.88,98.64l-5.13,0.7l-86.43-86.78l81.64,85.87l-5.6,0.5l-91.48-80.59l87.53,80.46l-6.21,0.41l-94.85-69.31l90.5,69.78l-7.7,0.74
		l-97.29-62.75l92.94,63.93l-4.34,0.98l-95.36-54.31l90.14,55.65l-6.85,1.28l-97.77-44.37l94.62,45.13l-99.92-35l96.97,36.13
		L88.8,239.35l101.63,13.71l-124.48,6.39l113.38-2.97L57.57,276.83l97.21-12.86l-85.28,41.98l93.31-43.8l-73.02,62.3l80.14-62.92
		l6.51-1.68l-57.05,69.75l62.84-70.66l9.29-1.71l-48.94,81.37l54.01-82.11l7.38-1.46l-42.01,68.44l47.3-68.44l6.77-0.94
		l-55.44,86.47l61.95-86.96l6.99-0.74l-49.97,74.35l54.32-73.86l5.8-0.27l-36.8,53.51l40.42-53.51l6.52-0.69l-61.68,80.29
		l67.23-80.29l5.78-0.97l-53.82,69.75l59.8-69.85h6.74l-68.22,84.09l72.15-83.5l2.41,0.1l-51.41,66.68l53.76-66.29l3.19,0.41
		l-63.36,92.26l67.28-91.86l6.73,0.62l-58.9,88.82l65.65-88.33l9.33,1.3l-63.73,92.68l69.11-91.32l5.55,0.86l-61.14,84.98
		l66.45-84.16l0.97,0.2l6.53,1.47l-73.31,91.19l81.74-89.03l4.66,0.93l-68.86,77.45l72.61-76.73l8.14,1.94l-75.43,76.56l79.42-75.79
		l1.86,0.56l-63.89,64.77l65.44-64.28l5.28,2l-92.93,90.61l95.82-89.56l2.91,0.87l-68.95,67.92l71.75-67.12l4.19,1.24l-80.14,77.45
		l84.85-75.88l3.32,1.11l-64.37,59.16l67.28-58.25l3.73,0.99l-18.05,15.09l-74.02,69.51l96.9-82.89l4.23,1.21l-77.63,71.57
		l82.06-70.16l4.33,1.11l-19.44,16.04l-72.42,70.21l96.49-85.04l4.23,1.21l-79.32,73.22l82.84-71.71l6.75,1.31l-16.61,15.13
		l-71.85,65.89l92.98-78.71l7.85,1.81c0,0-102.11,83.35-98.9,83.35c3.23,0,103.63-82.34,103.63-82.34l4.23,0.91l-86.76,80.47
		l89.88-79.67l5.53,1.61l-94.61,95.12l99.23-93.72l3.63,1.41l-74.87,74.76l77.97-73.8l3.44,1.65l-88.81,99.34l93.34-97.23l7.24,2.41
		l-69.99,79.03l73.91-77.32l6.54,2.26l-80.14,88.94l84.77-86.87l8.15,3.82l-73.44,76.41l77.97-74.1l4.73,2.92l-93.82,93.88
		l98.65-91.97l4.53,2.62l-69.7,67.79l72.81-65.68l3.62,2.21L456,419.06l91.41-85.17l4.83,3.02l-80.15,89.27l84.66-87.16l3.54,1.51
		l2.89,1.72l-71.78,94.24l76.34-92.79l6.94,3.77l-70.39,90.28l75.62-88.76l4.66,1.96l-68.06,89.38l73.28-87.1l2.99,1.34
		l-70.47,99.28l73.9-97.71l4.2,1.89l-70.38,100.97l74.72-98.85l3.63,1.93l-69.34,103.99l73.14-102.3l3.54,2.03l-67.67,108
		l71.14-105.85l2.87,1.37l-70.14,110.28l73.53-108.64l5.16,2.29l-74.2,118.57l78.8-116.28l3.25,1.73L569.94,491.8l72.03-112.64
		l4.5,2.02l-69.44,115.8l75.12-113.08l7.34,3.24l-76.03,111.75l79.55-109.86l5.13,3.02l-76.32,108.78l81.15-105.56l4.63,3.22
		l-81.92,108.77l85.74-105.65l3.52,2.41l-84.73,116.13l89.16-113.21l4.23,2.1l-71.53,107.25l75-104.57l3.26,2.1l-60.22,89.58
		l65-86.24l2.73,1.83L629.8,527.85l80.36-107.33l4.61,3.06l-68.88,101.71L719.87,427l5.18,3.98l-76.57,114.26l82.06-110.42
		l7.73,7.75l-76.94,111.66l81.83-107.29l4.11,4.33l-70.47,113.92l75.29-110.72l3.78,3.67l-66.18,104.15l69.26-101.14l7.32,6.86
		L689.01,578.7l80.45-107.18l2.62,2.54l-63.09,88.56l66.24-85.56l5.85,5.41l-72.72,100.41l75.6-97.85l5.14,4.56l-54.37,70.44
		l57.09-68.02l5.33,5.27l-82.37,105.87l86.25-102.34l3.29,3.47l-59.3,76.68l61.77-74l4.53,4.8c0,0-89.01,109.65-83.03,102.98
		c31.06-34.59,75.27-85.39,87.85-98.16c0.42-0.4,7.77,7.72,7.77,7.72l-80.16,99.46l84.96-94.32l5.21,5.45l-83.1,91.42l86.39-87.98
		l5.02,5.31l-78.51,87.2l83.99-84.32l11.26,12.21l11.58,3.89c0,0,25.74,26.37,32.17,41.2c6.46,14.79,22.55,43.1,21.9,81.09
		c-0.66,37.96-2.6,93.98-2.6,93.98l11.6,0.63c0,0,3.87-82.04,2.87-101.37c-0.94-19.33-17.34-79.18-33.78-100.43
		c-16.42-21.21-83.03-96.54-107.17-116.82c-24.13-20.25-53.1-48.74-53.1-48.74L641.06,182.38c-0.01,0,87.86,208.38,87.86,216.1
		c0,7.73-3.87,1.96-3.87,1.96v0.63l-96.06-217.73l86.74,210.84l-8.85-4.38c0,0-87.53-196.33-93.34-209.83
		c-5.79-13.55,87.5,207.54,87.5,207.54l-10.11-5.55L605.06,170.9c0,0,63.27,154.78,73.24,192.36c3.1,11.69-0.15,12.25-0.3,11.57
		c-1.85-7.38-83.2-206.35-83.2-206.35s65.11,167.06,71.14,186.21c3.69,11.81,4.12,17.12,4.12,17.12l-94.64-211.68l85.79,207.85
		l-5.23-3.32L545.01,146.16c0,0,102.91,207.62,102.91,214.39c0,1.74-3.89-2.4-5.63-3.92c-0.37-0.32-77.57-207.16-77.99-207.57
		c-0.33-0.31,73.35,204.86,72.96,205.15c-2.52,1.91-5.32-8.84-6.04-10.36c-0.4-0.85-0.99-3.45-1.61-5.23l-1.7-4.06L534.37,139.4
		l93.43,209.58"/>
	<polygon class="st0" points="503.42,311.5 438.26,384.86 507.45,311.5 	"/>
	<polygon class="st0" points="767.87,464.19 702.49,558.56 770.27,466.11 	"/>
	<polygon class="st0" points="784.05,479.4 717.19,571.36 786.44,480.84 783.09,478.18 	"/>
	<polygon class="st0" points="827.02,520.2 747.6,609.99 829.17,522.62 	"/>
	<polygon class="st0" points="843.93,538.8 764.26,623.24 847.29,542.39 	"/>
	<polygon class="st0" points="171.47,260.22 69.83,268.21 179.18,257.58 	"/>
	<polygon class="st0" points="184.73,254.45 94.46,249.13 191.5,253.72 	"/>
	<polygon class="st0" points="217.8,248.9 126.08,203.25 211.04,250.1 	"/>
	<polygon class="st0" points="221.91,247.69 128.98,187.58 217.08,247.69 	"/>
	<polygon class="st0" points="446.14,274.49 303.24,128.38 441.06,272.56 	"/>
	<polygon class="st0" points="717.43,394.18 646.47,198.21 709.24,388.89 	"/>
	<polygon class="st0" points="731.43,394.68 661.43,192.4 725.64,393.24 	"/>
	<polygon class="st0" points="84.08,401.44 60.91,415.18 89.14,400.21 	"/>
	<polyline class="st0" points="223.35,396.73 162.18,428.94 227.22,397.35 	"/>
	<polyline class="st0" points="393.28,447.42 285.38,494.13 401.12,450.45 393.28,447.42 	"/>
	<polyline class="st0" points="412.02,455.19 281.2,508.44 417.17,456.96 412.02,455.19 	"/>
	<polygon class="st0" points="579.13,560.27 417.41,583.19 581.3,563.4 	"/>
	<polyline class="st0" points="586.85,566.77 428.29,598.63 589.51,569.22 	"/>
	<path class="st0" d="M597,573.06c0,0-176.92,31.13-175.72,31.13c1.2,0,182.24-26.57,182.24-26.57L597,573.06z"/>
	<polygon class="st0" points="608.1,580.31 443.72,623.02 614.14,584.37 	"/>
	<polyline class="st0" points="620.9,590.66 421.52,637.26 623.55,593.06 620.9,590.66 	"/>
	<path class="st0" d="M931.47,775.56l-11.61-81.11c0,0-20.59-86.24-27.01-91.4c-6.45-5.13-63.11-37.3-73.41-45.06
		c-10.3-7.73-104.24-57.9-124.84-68.24c-20.59-10.27-123.6-60.48-142.91-69.48c-19.3-9.02-105.55-33.5-126.16-38.64
		c-20.57-5.15-99.12-24.44-119.72-29.58c-20.59-5.17-47.63-5.17-63.07-3.87c-15.44,1.27,38.12,2.07,38.12,2.07l11.3,2.96
		l-48.07-0.05l52.33,1.16l5.36,1.42l-69.02,3.68l72.56-1.9l2.88,0.98l-61.12,6.24l62.81-5.49l2.37,0.65l-65.99,12.06l72.25-10.14
		l10.12,2.87l-65.99,10.16l68.6-9.43l6.73,1.89l-82.08,13.36l89.8-11.57l16.5,4.12l-75.79,9.62l78.81-8.89l11.38,2.84l-85.94,13.53
		l92.69-11.6l10.83,3.04l-75.03,9.93l78.66-8.88l7.9,2.2l-99.61,13.98l106.93-11.59l9.34,2.66l-84.24,9.91l88.39-8.72l5.89,1.66
		l-81.9,16.72l88.59-14.97l14.08,4.18l-100.51,16.27l104.11-15.18l8.3,2.46l-106.85,16.91l115.38-14.99l11.07,3.19L368.9,424.6
		l120.5-15.73l12.71,3.64l-134.18,17.39l139.84-15.28l5.01,1.76l-116.19,16.74l119.21-15.71l9.04,3.16l-146.27,19.01l152.78-16.44
		l9.72,4.36l-145.93,14.15l151.04-11.9l7.95,3.51l-148.52,18.84L559.8,435.7l5.97,3.34l-120.12,17.59l122.21-16.43l10.4,5.83
		l-150.46,16.7L584.46,449l10.19,5.71l-127.59,6.09l131.36-3.95l5.9,3.32l-139.83,18.01l145.08-14.95l14.43,7.9l-127.33,10.92
		l131.07-8.88l10.08,5.51l-165.59,12.06l170.4-7.71l10.12,5.04l-127.26,2.5l131.05-0.58l4.44,2.2l-159.79,9.17l165.59-5.81
		l11.63,6.06l-105.3,6.63l109.13-4.59l8.67,4.47l-179.09,6.76l186.8-2.64l14.69,7.77l-158.9-9.48l163.34,11.83l5.04,2.66
		l-178.15,5.3l183.91-1.44l11.67,5.8l-146.7,0.21l150.14,1.53l8.1,4.03l-160.78,8.21l169.2-4.1l11.26,5.78l-166.94,6.78l171.99-4.16
		l8.54,4.39l-150.6,6.76l158.07-2.4l20.28,9.65l-155.68,1.2l161.23,2.4l20.26,10.39l-193.54-8.69l173.79,13.51
		c0,0,27.51,0,33.28,3.88c5.84,3.87,25.11,15.93,31.87,24.64c6.73,8.68,16.9,57.42,19.77,63.23c2.92,5.78,11.62,59.85,11.62,59.85
		l3.84,31.88L931.47,775.56z"/>
	<path class="st0" d="M874.81,792.94L756.21,684.1l-101.14-78.34c0,0-154.11-116.07-198.53-139.24
		c-44.4-23.18-127.05-53.69-163.19-62.68c-36.06-8.96-90.52-22.21-109.81-20.28c-19.3,1.91-106.21,15.44-106.21,15.44l-13.53,11.6
		l-7.71,5.79c0,0,16.39-10.64,27.03-13.52c2.39-0.63,6.87-1.49,12.37-2.41c1.51-0.25-35.65,16.93-33.97,16.65
		c1.48-0.23,41.76-17.88,43.32-18.12c2.13-0.29,4.31-0.64,6.53-0.94c1.57-0.23-42.73,20.39-41.15,20.15
		c1.5-0.23,48.85-21.24,50.33-21.48c1.87-0.25,3.72-0.54,5.52-0.75c0.9-0.14-44.95,22.48-44.05,22.33
		c0.41-0.03,47.6-22.84,48.01-22.86c1.51-0.22,2.96-0.41,4.3-0.59c0.6-0.09-47.44,19.37-46.88,19.29
		c0.75-0.1,50.08-19.69,50.73-19.8c4.13-0.54,6.73-0.87,6.73-0.87l-50.2,28.06l55.35-28.15l4.36-0.26l-51.51,24.53l55.53-24.75
		l6.29-0.4l-58.75,26.8l63.21-27.16l10.99-0.84l-67.12,36.68l72.1-36.5l2.41,0.17l-51.98,41.61L191.74,392l5.3,0.42l-61.43,32.32
		l65.53-31.29l6.51,0.99l-64.68,37.4l69.52-36.38l6.04,1.09l-58.42,31.05l62.3-30.41l5.53,0.86l-65.65,33.79l70.79-32.67l7.28,1.37
		l-60.19,27.54l64.91-26.49l3.14,0.71l-59.85,24.58l61.99-24.12l5.83,1.3l-96.78,36.46l100.24-35.4l8.35,2.14l-84.24,31.55
		l87.6-30.73l6.31,1.55l-99.93,40.55l103.63-39.24l13.43,2.29l-97.64,36.7l101.27-35.5l5.77,1.21l-92.45,34.53l96.32-33.32
		l8.21,1.69L195.1,460.8l126.47-40.52l4.85,1.67l-104.51,37.42l107.17-35.93l7.47,2.13l-121.16,44.9l126.48-42.95l5.55,2.63
		l-99.01,38.73l104.56-37.02l6.76,2.87l-123.08,48.31l129.14-46.11l7.24,2.41L259.8,492.67l119-50.2l9.65,2.64l-106.91,48.84
		l111.02-46.66l11.59,4.82l-117.3,52.16l122.85-49.96l10.37,5.28L302.29,503.3l122.12-41.51l6.76,3.85l-134.69,45.38l139.28-43.2
		l8.46,3.61l-132.54,40.56l138.07-38.38l7.25,3.13l-141.22,42l145.32-39.57l4.81,1.91l-138.55,39.36L469.32,484l5.78,3.38
		l-137.2,35.78l-13.41,3.32l154.21-37.19l9.68,5.82l-139.53,31.37l144.33-28.97l4.38,3.36l-155.7,35.25l159.31-33.04l1.69,2.37
		l-132.53,31.63l136.16-29.23l4.08,2.43l-156.17,36.46l160.6-32.84l6.28,4.19l-133.07,25.98l137.25-22.27l6.63,4.18l-162.25,28.49
		l166.08-25.59l8.95,4.58l-141.71,23.66l144.6-20.77l6.27,3.87L382.4,565.09l175.26-21.4l8.53,6.45l-146.11,20.76l149.48-17.39
		l5.48,4.5l-175.25,24.43l178.14-21.37l3.87,3.39l-113.7,18.26l117.22-15.7l6.14,3.39l-174.29,23.64l178.62-20.92l7.57,5.64
		l-126.82,21.56l130.53-19.45l7.87,5.14l-188.1,24.44l191.64-21.88l13.34,11.55l-189.55,22.89l196.8-18.83l11.61,9.41l-184.25,16.65
		l188.37-11.69l5.78,5.06l-199,14.83l202.73-10.09l10.49,8.92l-165.43,8.41l161.83-3.85l7.6,5.92l-198.89,5.19l201.43-2.77
		l11.96,9.54l-163.17,5.32l166.08-2.95l7.22,5.85l-204.19,3.37l207.06,1.21l13.31,9.64l-139.28,0.72l142.5,1.64l19.95,11.39
		l-216.52-5.28l222.37,9.32c0,0,31.53,22.52,40.23,30.26c8.69,7.72,39.58,37.65,45.37,44.4c5.82,6.77,45.39,41.51,45.39,41.51
		L874.81,792.94z"/>
	<path class="st0" d="M422.96,556.41l11.02,2.55l-68.93,71.78l75-70.34l8.98,2.11l-75.96,64.68l82.71-63.35l14.49,3.16
		l-132.29,85.62l139.94-83.37l9.41,1.92l-108.79,82.08l114.23-79.81l5.76,2.08l-122.56,84.49l127.62-82.65l7.88,2.84l-100.11,86.72
		l107.18-84.97l8.22,2.84l-124.41,73.29l130.03-71.4l10.29,3.49l-107.64,87.39l114.09-84.5l11.91,4.86l-116.49,80.12l122.75-77.79
		l9.19,3.46L471.71,691.1l111.54-84.48l7.18,2.72l-104.37,90.61l109.37-88.75l9.37,3.46c0,0-105.32,96.22-109.42,96.22
		c-0.96,0,115.84-93.66,115.84-93.66l8.82,3.75l-107.29,95.06l112.58-92.82l11.02,4.96L514.71,721.5l128.39-90.29l5.38,3.2
		l-99.03,92.86l104.51-89.61l10.37,6.59l-126.97,77.71l132.79-74.8l11.1,7.22l-110.11,84.5l115.87-80.16l12.07,9.2L595.3,738.38
		l108.15-66.6l13.51,7.7l-128.88,73.87l134.7-70.49c0,0,25.57,13.54,44.86,28.01c19.32,14.47,73.38,65.66,83.05,74.36
		c9.65,8.67,30.89,27.01,30.89,27.01v-12.53c0,0-88.82-91.74-95.56-97.51c-6.75-5.79-128.91-87.12-196.49-107.43
		c-67.58-20.25-158.33-48.61-179.58-51.51c-21.23-2.91-122.13-12.07-138.55-12.07s-70.03-5.63-93.18-5.63
		c-7.74,0-14.23-0.88-27.11,3.81c-0.78,0.26-58.83,1.65-59.61,1.94c-1.09,0.4,57.9-0.92,56.8-0.52
		c-24.37,9.42-57.47,24.73-68.05,29.49c-17.66,7.94,65.15-26.37,72.88-28.28c7.73-1.93,19.8-1.66,19.8-1.66l-79.17,39.59
		l84.99-39.27l9.26,0.41l-85.87,29.22l90.7-28.82l6.44,0.8l-84.29,41.53l88.31-41.26l9.26,0.8l-99.01,37.08l103.71-36.55l7.38,0.68
		l-88.39,53.71l91.93-53.34l5.32,0.16l-82.29,53.68l86.16-53.56l5.78,0.18l-74.05,58.68l78.36-57.45l3.5,0.07l-57.74,53.83
		l61.64-53.73l5.78,0.14l-93.97,48.62l98.93-48.23l3.58,0.11l-65.5,63.71l69.02-63.6l2.57,0.36l-45.2,79.34l47.64-78.98l3.21,0.28
		l-69.84,72.1l73.87-71.92l10.13,1.29L216.68,609l82.7-68.06l4.87,0.38l-57.96,56.83l61.55-56.55l4.09,0.32l-74.81,82.52
		l80.39-82.52l5.02,0.5l-62.73,64.41l66.85-63.96l9.42,0.96l-66.61,74.36l71.19-73.4l7.03,0.49l-50.87,94.17l54.95-93.2l13.75,0.26
		l-81.57,77.51l88.19-76.3l4.78,0.6l-82.99,79.86l86.87-79.37l6.45,0.83l-70.47,78.21l76.51-77.21c0,0,4.47,1.06,8.11,1.58
		c1.24,0.19-48.01,82.84-46.66,83.04c1.3,0.19,51.46-82.69,52.71-82.51c4.51,0.64,8.38,1.2,8.44,1.09
		c0.56-0.8-87.52,81.42-87.52,81.75"/>
	<line class="st0" x1="410.89" y1="555.27" x2="437.43" y2="562.18"/>
	<path class="st0" d="M282.64,697.02"/>
	<polygon class="st0" points="358.59,405.14 292.94,334.96 363.1,406.75 	"/>
	<polygon class="st0" points="416.53,428.94 340.58,344.96 420.4,430.56 	"/>
	<polygon class="st0" points="459.97,452.11 396.24,355.9 467.06,455.98 	"/>
	<polygon class="st0" points="447.41,396.12 358.59,411.58 449.03,397.08 	"/>
	<path class="st0" d="M899.91,787.16c0,0-32.8-44.43-50.2-56c-17.39-11.6-57.31-47.02-74.02-58.59"/>
	<path class="st0" d="M913.29,794.14c0,0-41.36-49.9-51.49-56.59c-10.14-6.65-65.68-55.58-77.11-63.57
		c-11.37-7.99-90-76.11-114.72-92.8c-24.75-16.65-137.28-89.45-152.53-97.52c-15.29-8.07-114.32-68.33-133.46-75.21
		c-19.16-6.86-84.4-81.78-84.4-81.78l77.49,74.23l27.43,11.26l-74.19-77.05l83.41,80.8l17.16,10.05l-73.72-83.15l81.99,86.91
		l13.04,7.35l-75.17-90.59l83.15,94.01l15.55,9.38l-67.99-95.57l74.99,98.62l10.15,7.32l-62.69-100.27l70.96,104.33l15.24,8.73
		l-61.29-104.76l67.38,107.13l13.02,8.04l-55.29-115.25l62.9,119.62l15.22,10.3l-46.84-118.89l52.86,122.58l15.23,9.37l-37.85-130.6
		l43.89,133.65l19.97,13.98l-42.23-135.56l49.23,139.6l20.6,14.3l-47.35-152.72l54.32,157.05l20.27,14.33L613.84,408l53.57,160.57
		l21.57,15l-56.56-171.29l64.48,175.65l19.98,13.68l-69.13-184.46l76.42,189.12l18.36,12.65L668.7,430.5l81.73,194.43l25.96,19.57
		l-93.17-202.72l99.85,206.41l19.89,16.23l-81.32-212.09l87.97,217.05l17.67,16.19L708.59,459.13L833.9,690.89l11.66,9.62
		L737.24,472.64l114.33,233.16l8.84,8.25l-105.47-228.1l112.72,234.38c0,0,16,18.73,20.77,20.77c4.78,2.05,33.68,47.13,39.24,55.96
		C933.32,805.88,913.29,794.14,913.29,794.14z"/>
	<polygon class="st0" points="486.67,467.91 424.26,365.56 491.19,469.49 	"/>
	<polygon class="st0" points="506.96,476.56 446.8,363.95 511.16,479.17 	"/>
	<polygon class="st0" points="528.86,490.1 474.14,374.23 534,492.67 	"/>
	<polygon class="st0" points="548.5,501.68 506.31,376.18 553.61,504.58 	"/>
	<polygon class="st0" points="573.91,516.84 534.64,387.13 578.41,519.39 	"/>
	<polygon class="st0" points="600.61,533.56 553.93,389.71 604.16,535.81 	"/>
	<polygon class="st0" points="629.6,553.19 584.84,406.42 633.75,556.09 	"/>
	<polygon class="st0" points="662.39,572.8 613.49,430.56 665.96,574.75 	"/>
	<polygon class="st0" points="686.56,588.58 627.99,431.2 691.69,591.81 	"/>
	<polygon class="st0" points="715.51,606.62 647.95,440.54 720.66,608.84 	"/>
	<polygon class="st0" points="744.13,627.21 676.88,446.96 748.65,630.75 	"/>
	<polygon class="st0" points="765.7,641.34 693.31,454.04 771.49,644.26 	"/>
	<polygon class="st0" points="799.5,669.06 762.82,513.28 804.64,672.28 	"/>
	<polyline class="st0" points="347.02,369.11 279.44,381.64 348.29,369.74 	"/>
	<polygon class="st0" points="825.9,577.31 656.94,575.07 828.12,578.94 	"/>
	<polygon class="st0" points="158.76,530 85.69,565.76 163.58,529.36 	"/>
	<polygon class="st0" points="715.51,678.7 588.72,744.36 707.17,674.17 	"/>
	<path class="st0" d="M897.99,829.63c0,0-279.02-81.08-326.85-90.74c-47.76-9.66-236.99-65.67-285.27-71.45
		c-48.28-5.8-93.65-11.59-139.99-15.46c-46.35-3.87-52.15,4.84-71.46,8.7c-19.29,3.86-52.13,18.35-52.13,18.35
		s77.24-15.44,98.46-19.31c21.26-3.86,88.25,6.44,134.22,13.51c50.2,7.74,85.91,18.34,114.87,26.09
		c28.98,7.7,98.1,24.96,126.48,31.85c31.86,7.73,115.08,33.11,140.03,39.59c26.04,6.75,100.39,24.11,123.57,31.87
		c0,0,62.74,16.4,73.37,18.32c10.63,1.93,38.63,8.7,46.34,14.49C887.36,841.22,897.99,829.63,897.99,829.63z"/>
	<polygon class="st0" points="743.49,794.85 545.57,822.87 725.15,790.99 	"/>
	<polygon class="st0" points="713.59,787.16 494.42,822.87 698.11,784.27 	"/>
	<polygon class="st0" points="448.53,718.11 302.29,745.61 440.36,715.69 	"/>
	<polygon class="st0" points="411.87,708.45 252.07,738.38 399.32,705.08 	"/>
	<polygon class="st0" points="392.56,702.66 253.06,727.75 382.9,700.75 	"/>
	<polygon class="st0" points="372.75,698.31 239.04,721.97 365.51,696.88 	"/>
	<polygon class="st0" points="356.83,694.45 226.98,711.35 351.99,692.04 	"/>
	<polygon class="st0" points="332.7,687.7 217.31,704.59 324.97,686.28 	"/>
	<polygon class="st0" points="311.92,682.86 203.8,696.4 306.13,680.96 	"/>
	<polygon class="st0" points="296,679.02 178.2,690.62 281.99,676.6 	"/>
	<polygon class="st0" points="275.73,674.67 180.63,679.99 262.67,672.28 	"/>
	<polygon class="st0" points="245.32,669.35 164.69,677.08 234.68,667.43 	"/>
	<polygon class="st0" points="219.25,666.47 147.8,674.67 204.79,664.53 	"/>
	<polygon class="st0" points="192.69,661.63 127.04,674.17 181.61,661.15 	"/>
	<polygon class="st0" points="169.06,658.72 99.53,679.99 156.98,658.72 	"/>
	<polygon class="st0" points="149.24,656.81 72.48,684.33 132.35,658.72 	"/>
	<polygon class="st0" points="111.6,658.72 53.68,680.96 100.02,659.7 	"/>
	<polygon class="st0" points="72.01,667.93 35.34,684.33 62.82,669.84 	"/>
	<polygon class="st0" points="103.86,663.07 62.36,680.96 115.94,660.17 	"/>
	<polygon class="st0" points="121.72,657.76 68.63,682.4 127.04,657.76 	"/>
	<polygon class="st0" points="144.43,658.72 85.04,681.92 148.77,659.23 	"/>
	<polygon class="st0" points="164.23,660.66 129.46,678.52 171.94,661.63 	"/>
	<polygon class="st0" points="186.92,663.07 129.95,685.79 190.28,663.57 	"/>
	<polygon class="st0" points="212.98,666 160.35,683.84 219.25,666.47 	"/>
	<polygon class="st0" points="240.48,669.84 178.2,686.28 247.23,670.33 	"/>
	<polygon class="st0" points="266.56,674.67 183.53,696.88 271.85,674.67 	"/>
	<polygon class="st0" points="293.58,678.52 215.88,700.25 299.87,679.48 	"/>
	<polygon class="st0" points="313.87,682.86 214.44,709.93 318.68,684.33 	"/>
	<polygon class="st0" points="337.04,687.23 224.55,721.5 341.39,690.62 	"/>
	<polygon class="st0" points="354.41,693.49 246.29,725.84 359.25,695.44 	"/>
	<polygon class="st0" points="411.87,708.45 260.77,739.85 414.76,709.43 	"/>
	<path class="st0" d="M428.76,713.29c0,0-146.77,32.33-144.34,31.39c2.42-0.98,149.18-30.91,149.18-30.91L428.76,713.29z"/>
	<polygon class="st0" points="448.53,718.11 299.37,749.51 454.34,719.56 	"/>
	<polygon class="st0" points="467.86,721.5 302.29,758.2 473.17,723.91 	"/>
	<polygon class="st0" points="491.52,728.26 323.04,766.41 496.33,731.16 	"/>
	<polygon class="st0" points="510.34,732.59 327.87,779.42 518.55,735.51 	"/>
	<polygon class="st0" points="533.03,739.85 350.55,785.23 539.79,742.23 	"/>
	<polygon class="st0" points="554.77,746.58 367.93,790.52 561.99,747.58 	"/>
	<polygon class="st0" points="585.65,754.32 389.2,796.31 573.09,752.85 	"/>
	<polygon class="st0" points="613.16,761.57 400.3,809.83 596.27,759.14 	"/>
	<polygon class="st0" points="627.15,764.93 410.89,817.1 636.35,770.74 	"/>
	<polygon class="st0" points="647.95,772.2 457.73,815.15 652.76,774.14 	"/>
	<polygon class="st0" points="675.93,779.9 483.79,819.01 681.72,782.8 686.56,781.36 	"/>
	<path class="st0" d="M140.06,653.41c0,0-68.05-7.72-65.64-7.72c2.42,0,82.56,8.23,82.56,8.23L140.06,653.41z"/>
	<polygon class="st0" points="163.73,656.32 110.62,642.83 171.94,656.81 	"/>
	<polygon class="st0" points="186.92,657.29 133.34,643.27 193.68,658.72 	"/>
	<polygon class="st0" points="206.21,659.7 158.43,641.34 214.44,659.23 	"/>
	<polygon class="st0" points="223.11,662.6 164.23,636.54 230.35,662.6 	"/>
	<polygon class="st0" points="240.97,664.53 197.52,641.34 248.21,665.02 	"/>
	<polygon class="st0" points="259.8,665.49 211.53,639.45 265.6,666.47 	"/>
	<polygon class="st0" points="285.38,670.81 242.89,647.17 292.14,670.81 	"/>
	<polygon class="st0" points="307.11,674.67 251.1,642.83 315.31,675.15 	"/>
	<polygon class="st0" points="329.78,677.56 278.62,652.94 341.39,681.41 	"/>
	<polygon class="st0" points="354.9,684.81 300.34,656.32 364.07,687.23 	"/>
	<polygon class="st0" points="378.56,691.56 316.77,656.32 388.69,692.54 	"/>
	<polygon class="st0" points="401.72,696.88 347.18,661.15 408.48,698.31 	"/>
	<polygon class="st0" points="491.52,721.01 430.69,691.56 500.2,722.96 	"/>
	<polygon class="st0" points="507.45,725.84 469.79,692.54 510.83,727.28 	"/>
	<polygon class="st0" points="516.14,725.84 488.62,699.31 523.86,729.23 	"/>
	<polygon class="st0" points="547.03,737.42 485.72,690.62 555.73,738.38 	"/>
	<polygon class="st0" points="568.27,741.27 506.96,697.82 578.9,742.72 	"/>
	<polygon class="st0" points="591.93,748.07 546.55,707.51 598.69,747.58 	"/>
	<polygon class="st0" points="737.24,785.68 650.82,715.21 729.48,782.8 	"/>
	<polygon class="st0" points="708.75,778.95 636.35,695.9 700.54,775.56 	"/>
	<polygon class="st0" points="686.56,770.24 615.09,694.95 690.9,771.7 	"/>
	<polygon class="st0" points="667.73,764.47 599.65,695.9 659.5,763.47 	"/>
	<polygon class="st0" points="648.88,760.59 580.34,686.73 642.61,759.14 	"/>
	<polygon class="st0" points="626.69,754.8 558.62,681.92 618.97,753.35 	"/>
	<polygon class="st0" points="605.44,749.51 545.57,691.56 596.76,747.08 	"/>
	<polygon class="st0" points="523.86,729.23 490.06,681.92 520,729.23 	"/>
	<path class="st0" d="M500.2,722.96c-2.43-3.9-37.19-40.1-37.19-40.1l32.36,39.59L500.2,722.96z"/>
	<polygon class="st0" points="481.87,718.11 439.38,675.15 473.17,716.67 	"/>
	<polygon class="st0" points="458.21,711.83 409.93,672.28 450.01,710.87 	"/>
	<polygon class="st0" points="438.9,705.57 390.62,666.94 429.74,705.57 	"/>
	<polygon class="st0" points="413.81,698.81 364.07,664.53 404.63,696.4 	"/>
	<polygon class="st0" points="341.39,681.41 281.54,644.26 332.2,679.48 	"/>
	<polygon class="st0" points="315.31,675.15 271.38,638.94 309.53,674.17 	"/>
	<polygon class="st0" points="268.95,666.94 224.09,638.46 263.65,666.94 	"/>
	<polygon class="st0" points="251.57,664.53 208.15,641.34 245.32,664.53 	"/>
	<polygon class="st0" points="171.94,656.81 133.34,640.88 163.73,656.32 	"/>
	<polygon class="st0" points="145.88,651.97 102.9,644.26 136.21,653.92 	"/>
	<polygon class="st0" points="108.71,653.92 53.68,659.23 106.76,656.81 	"/>
	<polygon class="st0" points="117.38,655.84 73.93,650.04 118.36,652.45 	"/>
	<polygon class="st0" points="652.76,774.14 465.45,827.07 663.38,775.56 	"/>
	<g>
		<path class="st0" d="M853.82,969.83c23.07-6.57,52.35-17.78,63.99-36.22c10.66-16.9,13.08-36.02,10.6-47.89
			c-4.06-19.44-20.46-36.16-45.28-48.84c-16.23-8.29-19.5-21.29-21.06-26.77c-2.35-11.74-1.17-22.68,3.52-32.86
			c7.04-15.64,24.66-24.16,44.22-24.16c24.24,0,40.87,11.15,49.88,33.45c8.99,22.3,13.5,43.62,13.5,63.96
			c0,20.36-7.82,39.82-18.78,61.03C916.8,984.31,853.82,969.83,853.82,969.83z"/>
	</g>
</g>
</svg>
